<?xml version="1.0" encoding="UTF-8"?>
<svg width="17px" height="18px" viewBox="0 0 17 18" version="1.1" xmlns="http://www.w3.org/2000/svg" xmlns:xlink="http://www.w3.org/1999/xlink">
    <title>DB968079-62EA-4D69-9EE6-EFC2F40875A4</title>
    <g id="Design" stroke="none" stroke-width="1" fill="none" fill-rule="evenodd">
        <g id="Desktop_FAQ" transform="translate(-268.000000, -1139.000000)" fill="#FFFFFF" fill-rule="nonzero">
            <g id="FAQ-section" transform="translate(242.000000, 863.000000)">
                <g id="Q2" transform="translate(26.257500, 270.000000)">
                    <path d="M9.36,23.01 C9.58,23.01 9.765,22.94 9.915,22.8 C10.065,22.66 10.14,22.48 10.14,22.26 L10.14,22.26 L10.14,16.83 L15.36,16.83 C15.58,16.83 15.765,16.76 15.915,16.62 C16.065,16.48 16.14,16.3 16.14,16.08 L16.14,16.08 L16.14,13.77 C16.14,13.55 16.065,13.365 15.915,13.215 C15.765,13.065 15.58,12.99 15.36,12.99 L15.36,12.99 L10.14,12.99 L10.14,7.74 C10.14,7.52 10.065,7.34 9.915,7.2 C9.765,7.06 9.58,6.99 9.36,6.99 L9.36,6.99 L6.78,6.99 C6.58,6.99 6.405,7.06 6.255,7.2 C6.105,7.34 6.03,7.52 6.03,7.74 L6.03,7.74 L6.03,12.99 L0.75,12.99 C0.53,12.99 0.35,13.065 0.21,13.215 C0.07,13.365 -2.84217094e-13,13.55 -2.84217094e-13,13.77 L-2.84217094e-13,13.77 L-2.84217094e-13,16.08 C-2.84217094e-13,16.28 0.075,16.455 0.225,16.605 C0.375,16.755 0.55,16.83 0.75,16.83 L0.75,16.83 L6.03,16.83 L6.03,22.26 C6.03,22.46 6.105,22.635 6.255,22.785 C6.405,22.935 6.58,23.01 6.78,23.01 L6.78,23.01 L9.36,23.01 Z" id="+"></path>
                </g>
            </g>
        </g>
    </g>
</svg>