<?xml version="1.0" encoding="utf-8"?>
<!-- Generator: Adobe Illustrator 24.2.3, SVG Export Plug-In . SVG Version: 6.00 Build 0)  -->
<svg version="1.1" id="Layer_1" xmlns="http://www.w3.org/2000/svg" xmlns:xlink="http://www.w3.org/1999/xlink" x="0px" y="0px"
	 viewBox="0 0 176 124" style="enable-background:new 0 0 176 124;" xml:space="preserve">
<style type="text/css">
	.st0{fill:#DC0000;}
	.st1{fill:#FFFFFF;}
</style>
<g id="XMLID_184_">
	<path id="XMLID_182_" class="st0" d="M172.32,19.36c-2.02-7.62-7.99-13.62-15.56-15.66C143.04,0,88,0,88,0S32.96,0,19.24,3.7
		C11.67,5.74,5.7,11.74,3.68,19.36C0,33.18,0,62,0,62s0,28.82,3.68,42.64c2.02,7.62,7.99,13.62,15.56,15.66C32.96,124,88,124,88,124
		s55.04,0,68.76-3.7c7.57-2.04,13.54-8.04,15.56-15.66C176,90.82,176,62,176,62S176,33.18,172.32,19.36z"/>
	<polygon id="XMLID_1355_" class="st1" points="70,88.17 116,62 70,35.83 	"/>
</g>
</svg>
