<?xml version="1.0" encoding="UTF-8"?>
<svg width="45px" height="56px" viewBox="0 0 45 56" version="1.1" xmlns="http://www.w3.org/2000/svg" xmlns:xlink="http://www.w3.org/1999/xlink">
    <title>icon-microphone</title>
    <g id="Design" stroke="none" stroke-width="1" fill="none" fill-rule="evenodd">
        <g id="Desktop_Home" transform="translate(-79.000000, -2564.000000)" fill="#6FFFEF" fill-rule="nonzero">
            <g id="Upcoming-Events-section" transform="translate(79.000000, 2545.000000)">
                <g id="icon-microphone" transform="translate(0.000000, 19.000000)">
                    <path d="M34.6777403,20.8102073 C34.6777403,20.8102073 34.6777403,20.8102073 34.6777403,20.8102073 C37.4359442,20.8102073 40.1051737,19.738437 41.9736344,17.7735247 C43.9310694,15.8086124 44.9987612,13.2185008 44.9987612,10.4497608 C45.0877355,4.64433812 40.3720967,0 34.6777403,0 C34.6777403,0 34.6777403,0 34.6777403,0 C28.983384,0 24.3567195,4.64433812 24.3567195,10.3604466 C24.3567195,10.7177033 24.3567195,11.1642743 24.4456938,11.6108453 L24.4456938,11.7001595 L24.3567195,11.7894737 L2.91390891,35.4577352 C2.11314005,36.3508772 1.66826846,37.5119617 1.66826846,38.6730463 C1.66826846,39.6555024 1.93519141,40.5486443 2.46903732,41.3524721 L2.55801163,41.5311005 L1.93519141,42.1562998 C-0.645063804,44.7464115 -0.645063804,49.0334928 1.93519141,51.6236045 C4.51544662,54.3030303 8.78621388,54.3030303 11.4554434,51.6236045 L19.8190293,43.2280702 C20.7977468,42.245614 22.1323615,41.7097289 23.378002,41.7097289 C24.7126167,41.7097289 25.9582572,42.245614 26.9369747,43.2280702 C27.9156922,44.2105263 28.4495381,45.460925 28.4495381,46.800638 C28.4495381,48.1403509 27.9156922,49.4800638 26.9369747,50.3732057 L22.7551818,54.5709729 C22.5772331,54.7496013 22.4882588,54.9282297 22.4882588,55.1961722 C22.4882588,55.6427432 22.8441561,56 23.2890277,56 C23.4669763,56 23.7338993,55.9106858 23.9118479,55.7320574 L28.0936408,51.5342903 C30.673896,48.9441786 30.673896,44.6570973 28.0936408,42.0669856 C25.5133856,39.3875598 21.2426184,39.3875598 18.5733888,42.0669856 L10.209803,50.4625199 C8.25236797,52.4274322 5.04929253,52.4274322 3.00288322,50.4625199 C1.04544823,48.4976077 1.04544823,45.2822967 3.00288322,43.2280702 L3.62570345,42.6028708 L3.80365208,42.692185 C4.60442094,43.2280702 5.49416412,43.4960128 6.47288161,43.4960128 C7.71852206,43.4960128 8.78621388,43.0494418 9.67595705,42.245614 L33.2541513,20.6315789 L33.3431256,20.6315789 C33.8769715,20.7208931 34.3218431,20.8102073 34.6777403,20.8102073 Z M27.9156922,4.9122807 C29.6062042,2.85805423 32.0085108,1.6076555 34.6777403,1.6076555 C34.6777403,1.6076555 34.6777403,1.6076555 34.6777403,1.6076555 C36.9910726,1.6076555 39.2154305,2.50079745 40.8169683,4.19776715 C42.418506,5.80542265 43.3972235,8.03827751 43.3972235,10.3604466 C43.3972235,13.0398724 42.2405573,15.5406699 40.194148,17.1483254 L40.0161994,17.2376396 L39.9272251,17.2376396 C37.1690212,16.2551834 34.588766,14.5582137 32.5423567,12.5039872 C30.4959474,10.4497608 28.8944097,7.85964912 27.8267179,5.09090909 L27.8267179,5.0015949 L27.9156922,4.9122807 Z M26.5810774,24.6507177 L8.60826524,41.0845295 C7.98544502,41.6204147 7.27365047,41.8883573 6.47288161,41.8883573 C5.67211276,41.8883573 4.96031821,41.6204147 4.33749799,41.0845295 C3.00288322,39.923445 2.91390891,37.8692185 4.15954935,36.6188198 L20.7087725,18.3987241 L20.8867211,18.6666667 C22.2213359,20.9888357 24.2677452,23.0430622 26.5810774,24.3827751 L26.8480004,24.5614035 L26.5810774,24.6507177 Z M28.0936408,23.2216906 L28.0046665,23.2216906 C25.4244113,21.8819777 23.2890277,19.738437 21.9544129,17.1483254 L21.8654386,16.969697 L24.8905654,13.6650718 L24.9795397,14.0223285 C26.0472315,16.8803828 28.2715895,19.0239234 31.0297933,20.0956938 L31.3856906,20.185008 L28.0936408,23.2216906 Z M28.5385124,16.6124402 C26.9369747,15.0047847 25.9582572,12.7719298 25.9582572,10.4497608 C25.9582572,9.37799043 26.1362058,8.3062201 26.4921031,7.32376396 L26.6700517,6.78787879 L26.8480004,7.23444976 C27.9156922,9.64593301 29.4282556,11.7894737 31.2967163,13.6650718 C33.1651769,15.5406699 35.3005606,17.0590112 37.7028671,18.1307815 L38.1477387,18.3094099 L37.6138928,18.4880383 C36.6351753,18.8452951 35.5674835,19.1132376 34.4997917,19.1132376 C34.4997917,19.1132376 34.4997917,19.1132376 34.4997917,19.1132376 C32.3644081,19.1132376 30.1400501,18.2200957 28.5385124,16.6124402 Z" id="Shape"></path>
                </g>
            </g>
        </g>
    </g>
</svg>