<?xml version="1.0" encoding="UTF-8"?>
<svg width="80px" height="81px" viewBox="0 0 80 81" version="1.1" xmlns="http://www.w3.org/2000/svg" xmlns:xlink="http://www.w3.org/1999/xlink">
    <title>icon-drumset</title>
    <g id="Design" stroke="none" stroke-width="1" fill="none" fill-rule="evenodd">
        <g id="Desktop_Home" transform="translate(-559.000000, -1914.000000)" fill="#1B2D38" fill-rule="nonzero">
            <g id="Band-section" transform="translate(56.000000, 1588.000000)">
                <g id="drumset_icon" transform="translate(503.000000, 326.000000)">
                    <path d="M79.2,21.6 L53.5,21.6 C53,21.6 52.6,22 52.6,22.5 L52.6,32.3 C49.2,30 45.2,28.6 40.8,28.4 L40.8,17.9 C46.3,17.7 52.2,15.4 55.4,12.3 C55.6,12.1 55.7,11.7 55.6,11.3 C55.5,11 55.1,10.8 54.8,10.8 L40.8,10.8 L40.8,7.2 L54.8,7.2 C55.2,7.2 55.5,7 55.6,6.7 C55.7,6.4 55.7,6 55.4,5.7 C52.2,2.3 45.8,0 40,0 C34.2,0 27.9,2.3 24.5,5.7 C24.3,5.9 24.2,6.3 24.3,6.7 C24.4,7 24.8,7.2 25.1,7.2 L39.1,7.2 L39.1,10.9 L25.1,10.9 C24.7,10.9 24.4,11.1 24.3,11.4 C24.2,11.7 24.2,12.1 24.5,12.4 C27.7,15.6 33.6,17.8 39.1,18 L39.1,28.4 C34.8,28.6 30.7,30 27.3,32.3 L27.3,22.5 C27.3,22 26.9,21.6 26.4,21.6 L0.9,21.6 C0.4,21.6 0,22 0,22.5 L0,37.4 C0,37.9 0.4,38.3 0.9,38.3 L10.8,38.3 L10.8,72.2 L4.3,78.7 C4,79 4,79.6 4.3,79.9 C4.5,80.1 4.7,80.2 4.9,80.2 C5.1,80.2 5.3,80.1 5.5,79.9 L11.6,73.8 L17.7,79.9 C17.9,80.1 18.1,80.2 18.3,80.2 C18.5,80.2 18.7,80.1 18.9,79.9 C19.2,79.6 19.2,79 18.9,78.7 L12.4,72.2 L12.4,38.2 L21.3,38.2 C18.8,41.8 17.4,46.2 17.4,50.8 C17.4,59.8 22.7,67.6 30.4,71.2 L23,78.6 C22.7,78.9 22.7,79.5 23,79.8 C23.2,80 23.4,80.1 23.6,80.1 C23.8,80.1 24,80 24.2,79.8 L32.1,71.9 C34.5,72.8 37.1,73.3 39.8,73.3 C42.5,73.3 45.1,72.8 47.5,71.9 L55.4,79.8 C55.6,80 55.8,80.1 56,80.1 C56.2,80.1 56.4,80 56.6,79.8 C56.9,79.5 56.9,78.9 56.6,78.6 L49.2,71.2 C56.9,67.6 62.2,59.8 62.2,50.8 C62.2,46.1 60.8,41.8 58.3,38.2 L67.2,38.2 L67.2,72.1 L61,78.6 C60.7,78.9 60.7,79.5 61,79.8 C61.2,80 61.4,80.1 61.6,80.1 C61.8,80.1 62,80 62.2,79.8 L68.3,73.7 L74.4,79.8 C74.6,80 74.8,80.1 75,80.1 C75.2,80.1 75.4,80 75.6,79.8 C75.9,79.5 75.9,78.9 75.6,78.6 L69.1,72.1 L69.1,38.2 L79,38.2 C79.5,38.2 79.9,37.8 79.9,37.3 L79.9,22.5 C80.1,22 79.7,21.6 79.2,21.6 Z M40,1.8 C44.3,1.8 49.2,3.3 52.4,5.5 L27.6,5.5 C30.9,3.2 35.7,1.8 40,1.8 Z M52.4,12.6 C49.2,14.8 44.3,16.3 40,16.3 C35.7,16.3 30.8,14.8 27.6,12.6 L52.4,12.6 L52.4,12.6 Z M22.8,36.5 L1.8,36.5 L1.8,34.2 L7.7,34.2 C8.2,34.2 8.6,33.8 8.6,33.3 C8.6,32.8 8.2,32.4 7.7,32.4 L1.8,32.4 L1.8,30.1 L5,30.1 C5.5,30.1 5.9,29.7 5.9,29.2 C5.9,28.7 5.5,28.3 5,28.3 L1.8,28.3 L1.8,23.3 L25.7,23.3 L25.7,33.5 C25.7,33.5 25.7,33.5 25.6,33.6 C24.6,34.5 23.7,35.4 22.8,36.5 C22.8,36.4 22.8,36.4 22.8,36.5 Z M40,71.6 C28.6,71.6 19.3,62.3 19.3,50.9 C19.3,45.9 21.1,41.3 24,37.7 C24.9,36.7 25.9,35.7 26.9,34.8 C30.5,31.9 35.1,30.1 40,30.1 C45.7,30.1 50.8,32.4 54.6,36.1 C54.7,36.2 54.8,36.4 55,36.5 C58.6,40.2 60.8,45.3 60.8,50.9 C60.8,62.3 51.5,71.6 40,71.6 Z M57.3,36.5 C57.2,36.4 57.2,36.4 57.1,36.3 C56.7,35.8 56.2,35.3 55.8,34.9 C55.4,34.5 54.9,34 54.4,33.6 L54.4,23.4 L78.3,23.4 L78.3,28.4 L75.1,28.4 C74.6,28.4 74.2,28.8 74.2,29.3 C74.2,29.8 74.6,30.2 75.1,30.2 L78.3,30.2 L78.3,32.5 L72.4,32.5 C71.9,32.5 71.5,32.9 71.5,33.4 C71.5,33.9 71.9,34.3 72.4,34.3 L78.3,34.3 L78.3,36.6 L57.3,36.6 L57.3,36.5 Z" id="Shape"></path>
                    <path d="M64.4,16.6 C64.6,16.6 64.8,16.5 65,16.3 L79.8,1.5 C80.1,1.2 80.1,0.6 79.8,0.3 C79.5,-7.07767178e-16 78.9,-7.07767178e-16 78.6,0.3 L63.7,15.1 C63.4,15.4 63.4,16 63.7,16.3 C63.9,16.5 64.1,16.6 64.4,16.6 Z" id="Path"></path>
                    <path d="M13.8,16.4 C14,16.6 14.2,16.7 14.4,16.7 C14.6,16.7 14.8,16.6 15,16.4 C15.3,16.1 15.3,15.5 15,15.2 L1.5,1.6 C1.2,1.3 0.6,1.3 0.3,1.6 C1.80411242e-16,1.9 1.80411242e-16,2.5 0.3,2.8 L13.8,16.4 Z" id="Path"></path>
                    <path d="M52.1,46.2 L44.3,45 L40.9,38.2 C40.8,37.9 40.4,37.7 40.1,37.7 C39.8,37.7 39.5,37.9 39.3,38.2 L35.8,45 L28,46.2 C27.7,46.2 27.4,46.5 27.3,46.8 C27.2,47.1 27.3,47.5 27.5,47.7 L33.1,53.1 L31.8,60.9 C31.7,61.2 31.9,61.6 32.2,61.8 C32.5,62 32.8,62 33.1,61.9 L40,58.2 L46.9,61.9 C47,62 47.2,62 47.3,62 C47.5,62 47.7,61.9 47.8,61.8 C48.1,61.6 48.2,61.3 48.2,60.9 L46.9,53.1 L52.5,47.7 C52.7,47.5 52.8,47.1 52.7,46.8 C52.7,46.5 52.4,46.2 52.1,46.2 Z M45.4,52.1 C45.2,52.3 45.1,52.6 45.1,52.9 L46.2,59.4 L40.5,56.3 C40.2,56.2 39.9,56.2 39.7,56.3 L34,59.4 L35.1,52.9 C35.1,52.6 35.1,52.3 34.8,52.1 L30.2,47.7 L36.7,46.7 C37,46.7 37.2,46.5 37.4,46.2 L40.3,40.6 L43.2,46.2 C43.3,46.5 43.6,46.6 43.9,46.7 L50.4,47.7 L45.4,52.1 Z" id="Shape"></path>
                </g>
            </g>
        </g>
    </g>
</svg>