<?xml version="1.0" encoding="UTF-8"?>
<svg width="67px" height="97px" viewBox="0 0 67 97" version="1.1" xmlns="http://www.w3.org/2000/svg" xmlns:xlink="http://www.w3.org/1999/xlink">
    <title>icon-guitar</title>
    <g id="Design" stroke="none" stroke-width="1" fill="none" fill-rule="evenodd">
        <g id="Desktop_Home" transform="translate(-937.000000, -1906.000000)" fill="#1B2D38" fill-rule="nonzero">
            <g id="Band-section" transform="translate(56.000000, 1588.000000)">
                <g id="guitar_icon" transform="translate(881.000000, 318.000000)">
                    <path d="M54.6,56.7 C49.8,55.1 47.5,50.7 47.7,43.4 C47.9,39.5 45.5,37.2 43.2,36.6 C41.1,36.1 39.1,37 38.2,38.9 C38.2,38.9 37.1,41.5 33.5,44.4 L21.5,18.7 C21.6,18.5 21.7,18 22.1,17.1 L24.2,17 C24.2,17 24.2,17.1 24.3,17.1 C24.9,18.3 26.3,18.8 27.5,18.3 C28.7,17.8 29.2,16.3 28.7,15.1 C28.2,13.9 26.7,13.4 25.5,13.9 C24.9,14.2 24.4,14.7 24.2,15.3 L22.8,15.3 C23.3,13.3 21.6,12 20.9,11.4 L20.7,11.3 C20.4,11.1 20,10.7 19.6,10.2 L21,10.2 C21.6,11.3 22.9,11.8 24.1,11.2 C25.3,10.6 25.8,9.2 25.3,8 C24.7,6.8 23.3,6.3 22.1,6.8 C21.4,7.1 20.9,7.8 20.8,8.5 L18.4,9 C17.6,7.9 16.8,6.6 16.1,5.2 L17.7,4.9 C18.3,5.8 19.6,6.2 20.7,5.7 C21.9,5.1 22.4,3.7 21.9,2.5 C21.3,1.3 19.9,0.8 18.7,1.3 C17.9,1.7 17.4,2.4 17.3,3.3 L15.3,3.6 C15.2,3.4 15.1,3.2 15,3 C14.1,1.1 12.9,0.5 11.5,1.1 L5.8,3.9 C4.4,4.6 4.1,5.9 5,7.8 C5.1,8 5.2,8.2 5.2,8.4 L3.7,9.7 C3.1,9.2 2.2,9.1 1.4,9.5 C0.2,10.1 -0.3,11.5 0.2,12.7 C0.7,13.9 2.2,14.4 3.4,13.9 C4.5,13.3 5,12.1 4.7,11 L5.9,10 C6.5,11.5 6.9,12.9 7.3,14.2 L5.6,15.7 C5,15.3 4.1,15.3 3.4,15.6 C2.2,16.2 1.7,17.6 2.2,18.8 C2.7,20 4.2,20.5 5.4,20 C6.5,19.5 7.1,18.1 6.6,17 L7.7,16 C7.8,16.6 7.9,17.2 7.9,17.6 L7.9,17.8 C7.9,18.7 7.8,20.9 9.6,21.8 L8.6,22.9 C8,22.7 7.3,22.6 6.7,22.9 C5.5,23.5 5,24.9 5.5,26.1 C6.1,27.3 7.5,27.8 8.7,27.3 C9.9,26.7 10.4,25.3 9.9,24.1 L9.8,24 L11.2,22.4 C12.2,22.7 12.6,22.9 12.8,23 L24.7,48.4 C20.4,48.7 17.9,47.1 17.8,47.1 C17.8,47.1 15.3,45.4 14.3,43.1 C13.6,41.4 12.4,41.5 12,41.6 C10.2,41.9 8.8,44.8 8.7,47.9 C8.6,52.6 12.1,55.1 13.9,56.5 C14.3,56.8 14.6,57 14.8,57.2 L14.9,57.3 C20.2,60.8 22.1,65.4 20.6,71.1 C18.6,76.1 18.7,82.6 20.9,87.3 C23.1,92.1 27.6,95.3 33.5,96.3 C38.9,97.2 45.1,96.2 50.9,93.5 C56.7,90.8 61.4,86.7 64.2,82 C67.2,76.9 67.7,71.4 65.5,66.6 C63.3,61.6 59.6,58.3 54.6,56.7 Z M26.1,15.5 C26.5,15.3 27,15.5 27.2,15.9 C27.4,16.3 27.2,16.8 26.8,17 C26.4,17.2 25.9,17 25.7,16.6 C25.5,16.2 25.7,15.7 26.1,15.5 Z M22.7,8.3 C23.1,8.1 23.6,8.3 23.8,8.7 C24,9.1 23.8,9.6 23.4,9.8 C23,10 22.5,9.8 22.3,9.4 C22.1,9 22.3,8.5 22.7,8.3 Z M19.3,2.9 C19.7,2.7 20.2,2.9 20.4,3.3 C20.6,3.7 20.4,4.2 20,4.4 C19.6,4.6 19.1,4.4 18.9,4 C18.7,3.6 18.9,3.1 19.3,2.9 Z M2.7,12.4 C2.3,12.6 1.8,12.4 1.6,12 C1.4,11.6 1.6,11.1 2,10.9 C2.4,10.7 2.9,10.9 3.1,11.3 C3.3,11.7 3.1,12.2 2.7,12.4 Z M4.7,18.5 C4.3,18.7 3.8,18.5 3.6,18.1 C3.4,17.7 3.6,17.2 4,17 C4.4,16.8 4.9,17 5.1,17.4 C5.2,17.8 5.1,18.3 4.7,18.5 Z M8,25.7 C7.6,25.9 7.1,25.7 6.9,25.3 C6.7,24.9 6.9,24.4 7.3,24.2 C7.7,24 8.2,24.2 8.4,24.6 C8.6,25 8.4,25.5 8,25.7 Z M28.9,53.6 L34.7,50.9 L35.4,52.3 L29.6,55 L28.9,53.6 Z M22.9,25.7 L25.2,30.7 L19.4,33.4 L17.1,28.4 L22.9,25.7 Z M16.5,27 L15.8,25.6 L21.6,22.9 L22.3,24.3 L16.5,27 Z M26,32.2 L26.7,33.6 L20.9,36.3 L20.2,34.9 L26,32.2 Z M27.3,35.1 L29.6,40.1 L23.8,42.8 L21.5,37.8 L27.3,35.1 Z M30.3,41.5 L31,43 L25.2,45.7 L24.5,44.3 L30.3,41.5 Z M20.9,21.4 L15.1,24.1 L14.4,22.7 L20.2,20 L20.9,21.4 Z M31.7,44.4 L34,49.4 L28.2,52.1 L25.9,47.1 L31.7,44.4 Z M40.2,57.1 C40.6,56.9 41.1,57.1 41.3,57.5 L42,58.9 C42.2,59.3 42,59.8 41.6,60 L31.5,64.7 C31.1,64.9 30.6,64.7 30.4,64.3 L29.7,62.9 C29.5,62.5 29.7,62 30.1,61.8 L40.2,57.1 Z M31.6,59.3 L30.3,56.4 L36.1,53.7 L37.4,56.6 L31.6,59.3 Z M6.5,5.4 L12.3,2.7 C12.8,2.5 13.1,2.6 13.7,3.8 C13.9,4.1 14,4.5 14.2,4.8 C14.2,4.9 14.3,5 14.3,5.1 C16,8.3 18.3,11.7 19.7,12.8 L19.9,12.9 C21,13.8 21.6,14.5 21.2,15.4 C20.5,16.9 20.2,17.8 20.1,18.4 L13.6,21.4 C13.1,21.2 12.2,20.8 10.6,20.4 C9.6,20.1 9.4,19.3 9.5,17.8 L9.5,17.6 C9.5,15.8 8.5,11.9 7.1,8.5 C7.1,8.4 7,8.3 7,8.2 C6.8,7.8 6.7,7.5 6.5,7.2 C5.8,5.9 6,5.6 6.5,5.4 Z M50.3,91.8 C36.8,98.1 25.8,93.7 22.4,86.4 C20.4,82.1 20.3,76 22.1,71.4 L22.1,71.3 C23.8,65 21.6,59.6 15.8,55.7 C15.5,55.5 15.2,55.2 14.9,55 C13.1,53.6 10.3,51.6 10.3,47.7 C10.3,44.8 11.6,43 12.3,42.9 C12.5,42.9 12.7,43.3 12.8,43.5 C13.9,46.3 16.8,48.2 16.9,48.2 C17,48.3 20.1,50.3 25.4,49.7 L30.2,60 L29.5,60.3 C28.3,60.9 27.8,62.3 28.3,63.5 L29,64.9 C29.6,66.1 31,66.6 32.2,66.1 L42.3,61.4 C43.5,60.8 44,59.4 43.5,58.2 L42.8,56.8 C42.2,55.6 40.8,55.1 39.6,55.6 L38.8,56 L34.1,46 C38.3,42.7 39.6,39.8 39.6,39.7 C40.3,38.3 41.7,38 42.8,38.3 C44.5,38.7 46.3,40.5 46.1,43.5 C45.9,51.5 48.6,56.5 54.1,58.3 C58.6,59.7 62,62.8 64,67 C67.5,74.3 63.8,85.5 50.3,91.8 Z" id="Shape"></path>
                    <path d="M13.9,17.7 C14.3,17.5 14.5,17 14.3,16.6 L10.3,8 C10.1,7.6 9.6,7.4 9.2,7.6 C8.8,7.8 8.7,8.2 8.9,8.6 L12.9,17.2 C13.1,17.7 13.5,17.8 13.9,17.7 Z" id="Path"></path>
                    <path d="M16.8,16.3 C17.2,16.1 17.4,15.6 17.2,15.2 L13.2,6.6 C13,6.2 12.5,6 12.1,6.2 C11.7,6.4 11.5,6.9 11.7,7.3 L15.7,15.9 C15.9,16.3 16.4,16.5 16.8,16.3 Z" id="Path"></path>
                    <path d="M53.5,76.3 L36.2,84.3 C35,84.9 34.5,86.3 35,87.5 L36.3,90.4 C36.9,91.6 38.3,92.1 39.5,91.6 L56.8,83.6 C58,83 58.5,81.6 58,80.4 L56.7,77.5 C56.1,76.2 54.7,75.7 53.5,76.3 Z M56.6,81 C56.8,81.4 56.6,81.9 56.2,82.1 L38.9,90.1 C38.5,90.3 38,90.1 37.8,89.7 L36.5,86.8 C36.3,86.4 36.5,85.9 36.9,85.7 L54.2,77.7 C54.6,77.5 55.1,77.7 55.3,78.1 L56.6,81 Z" id="Shape"></path>
                    <circle id="Oval" cx="42.3" cy="85.9" r="1"></circle>
                    <circle id="Oval" cx="45.1" cy="84.6" r="1"></circle>
                    <circle id="Oval" cx="48" cy="83.2" r="1"></circle>
                    <circle id="Oval" cx="50.9" cy="81.9" r="1"></circle>
                    <circle id="Oval" cx="53.8" cy="80.5" r="1"></circle>
                    <circle id="Oval" cx="39.4" cy="87.2" r="1"></circle>
                    <path d="M35.5,73.3 L45.6,68.6 C46.8,68 47.3,66.6 46.8,65.4 L46,64 C45.4,62.8 44,62.3 42.8,62.8 L32.7,67.5 C31.5,68.1 31,69.5 31.5,70.7 L32.2,72.1 C32.9,73.3 34.3,73.8 35.5,73.3 Z M33.1,70 C32.9,69.6 33.1,69.1 33.5,68.9 L43.6,64.2 C44,64 44.5,64.2 44.7,64.6 L45.4,66 C45.6,66.4 45.4,66.9 45,67.1 L34.9,71.8 C34.5,72 34,71.8 33.8,71.4 L33.1,70 Z" id="Shape"></path>
                    <path d="M52.8,65.2 C51.2,65.9 50.5,67.8 51.3,69.4 C52,71 53.9,71.7 55.5,70.9 C57.1,70.2 57.8,68.3 57,66.7 C56.2,65.1 54.3,64.5 52.8,65.2 Z M54.8,69.5 C54,69.9 53.1,69.5 52.7,68.7 C52.3,67.9 52.7,67 53.5,66.6 C54.3,66.2 55.2,66.6 55.6,67.4 C56,68.2 55.6,69.2 54.8,69.5 Z" id="Shape"></path>
                </g>
            </g>
        </g>
    </g>
</svg>