<?xml version="1.0" encoding="UTF-8"?>
<svg width="64px" height="97px" viewBox="0 0 64 97" version="1.1" xmlns="http://www.w3.org/2000/svg" xmlns:xlink="http://www.w3.org/1999/xlink">
    <title>icon-bass</title>
    <g id="Design" stroke="none" stroke-width="1" fill="none" fill-rule="evenodd">
        <g id="Desktop_Home" transform="translate(-198.000000, -1906.000000)" fill="#1B2D38" fill-rule="nonzero">
            <g id="Band-section" transform="translate(56.000000, 1588.000000)">
                <g id="bass_icon" transform="translate(142.000000, 318.000000)">
                    <path d="M13.815873,54.3604167 C8.22857143,56.078125 3.96190476,59.6145833 1.72698413,64.4645833 C-3.14920635,74.871875 3.04761905,88.1083333 15.5428571,93.8677083 C28.0380952,99.6270833 42.1587302,95.8885417 47.0349206,85.48125 C49.168254,80.934375 49.2698413,75.5791667 47.2380952,70.4260417 L47.2380952,70.325 L46.9333333,69.6177083 C45.6126984,66.2833333 44.9015873,64.4645833 49.2698413,61.3322917 C52.4190476,59.109375 53.3333333,56.684375 53.4349206,56.5833333 C54.247619,54.6635417 54.0444444,52.74375 53.0285714,51.228125 C51.9111111,49.5104167 49.8793651,48.5 47.4412698,48.5 C45.7142857,48.5 44.0888889,47.9947917 42.768254,47.0854167 L52.215873,26.978125 C53.1301587,25.6645833 53.8412698,25.3614583 54.9587302,24.9572917 C55.2634921,24.85625 55.4666667,24.7552083 55.7714286,24.6541667 C58.0063492,23.5427083 58.3111111,21.521875 58.5142857,19.8041667 C58.5142857,19.5010417 58.615873,19.1979167 58.615873,18.9958333 L58.615873,18.9958333 L59.4285714,12.125 C60.647619,12.0239583 62.1714286,11.6197917 62.984127,9.80104167 C63.4920635,8.68958333 63.4920635,7.275 63.0857143,6.0625 C62.5777778,4.85 61.7650794,3.940625 60.647619,3.43541667 C58.8190476,2.728125 57.1936508,3.03125 55.4666667,4.546875 L55.0603175,3.940625 C55.1619048,3.83958333 55.2634921,3.73854167 55.2634921,3.53645833 C55.8730159,2.32395833 55.2634921,0.909375 54.0444444,0.303125 C52.8253968,-0.303125 51.4031746,0.303125 50.7936508,1.515625 C50.184127,2.728125 50.7936508,4.14270833 52.0126984,4.74895833 C52.5206349,5.05208333 53.1301587,5.05208333 53.6380952,4.85 L54.247619,5.65833333 L51.0984127,8.99270833 L50.3873016,7.98229167 C50.4888889,7.88125 50.5904762,7.78020833 50.5904762,7.578125 C51.2,6.365625 50.5904762,4.95104167 49.3714286,4.34479167 C48.152381,3.73854167 46.7301587,4.34479167 46.1206349,5.55729167 C45.5111111,6.76979167 46.1206349,8.184375 47.3396825,8.790625 C47.847619,9.09375 48.4571429,9.09375 48.9650794,8.89166667 L49.8793651,10.2052083 L46.7301587,13.5395833 L45.6126984,12.0239583 C45.7142857,11.9229167 45.815873,11.821875 45.815873,11.6197917 C46.4253968,10.4072917 45.815873,8.99270833 44.5968254,8.38645833 C43.3777778,7.78020833 41.9555556,8.38645833 41.3460317,9.59895833 C40.7365079,10.8114583 41.3460317,12.2260417 42.5650794,12.8322917 C43.0730159,13.1354167 43.6825397,13.1354167 44.1904762,12.9333333 L45.5111111,14.7520833 L43.2761905,17.1770833 C42.9714286,17.4802083 42.6666667,17.7833333 42.3619048,17.9854167 L40.9396825,16.065625 C41.0412698,15.9645833 41.1428571,15.8635417 41.1428571,15.6614583 C41.752381,14.4489583 41.1428571,13.034375 39.9238095,12.428125 C38.7047619,11.821875 37.2825397,12.428125 36.6730159,13.640625 C36.0634921,14.853125 36.6730159,16.2677083 37.8920635,16.8739583 C38.4,17.1770833 39.0095238,17.1770833 39.5174603,16.975 L41.1428571,19.2989583 C40.8380952,19.8041667 40.7365079,20.2083333 40.7365079,20.6125 C40.7365079,21.6229167 41.447619,22.2291667 42.2603175,22.8354167 C42.4634921,23.0375 42.6666667,23.1385417 42.768254,23.340625 L36.8761905,35.9708333 C30.0698413,32.9395833 24.584127,35.3645833 24.3809524,35.465625 C17.8793651,38.496875 17.6761905,44.9635417 18.184127,48.6010417 C18.5904762,52.440625 14.9333333,53.95625 13.815873,54.3604167 Z M48.0507937,7.17395833 C47.6444444,6.971875 47.4412698,6.46666667 47.6444444,6.0625 C47.847619,5.65833333 48.3555556,5.45625 48.7619048,5.65833333 C49.168254,5.86041667 49.3714286,6.365625 49.168254,6.76979167 C48.9650794,7.17395833 48.4571429,7.37604167 48.0507937,7.17395833 Z M43.4793651,11.3166667 C43.0730159,11.1145833 42.8698413,10.609375 43.0730159,10.2052083 C43.2761905,9.80104167 43.784127,9.59895833 44.1904762,9.80104167 C44.5968254,10.003125 44.8,10.5083333 44.5968254,10.9125 C44.3936508,11.3166667 43.8857143,11.4177083 43.4793651,11.3166667 Z M38.9079365,15.3583333 C38.5015873,15.15625 38.2984127,14.6510417 38.5015873,14.246875 C38.7047619,13.8427083 39.2126984,13.640625 39.6190476,13.8427083 C40.0253968,14.0447917 40.2285714,14.55 40.0253968,14.9541667 C39.8222222,15.3583333 39.3142857,15.5604167 38.9079365,15.3583333 Z M47.0349206,34.1520833 L45.3079365,37.7895833 L39.415873,35.0614583 L41.1428571,31.4239583 L47.0349206,34.1520833 Z M41.8539683,30.009375 L42.5650794,28.5947917 L48.4571429,31.3229167 L47.7460317,32.7375 L41.8539683,30.009375 Z M44.5968254,39.2041667 L43.8857143,40.61875 L37.9936508,37.890625 L38.7047619,36.4760417 L44.5968254,39.2041667 Z M41.5492063,45.771875 L35.6571429,43.04375 L37.384127,39.40625 L43.2761905,42.134375 L41.5492063,45.771875 Z M33.6253968,47.3885417 L39.5174603,50.1166667 L37.7904762,53.7541667 L31.8984127,51.0260417 L33.6253968,47.3885417 Z M31.2888889,52.5416667 L37.1809524,55.2697917 L36.4698413,56.684375 L30.5777778,53.95625 L31.2888889,52.5416667 Z M34.3365079,45.9739583 L35.047619,44.559375 L40.9396825,47.2875 L40.2285714,48.7020833 L34.3365079,45.9739583 Z M49.0666667,29.8072917 L43.1746032,27.0791667 L44.4952381,24.1489583 L50.3873016,26.8770833 L49.0666667,29.8072917 Z M36.5714286,62.0395833 C36.9777778,62.2416667 37.1809524,62.746875 36.9777778,63.1510417 L36.2666667,64.565625 C36.0634921,64.9697917 35.5555556,65.171875 35.1492063,64.9697917 L24.8888889,60.2208333 C24.4825397,60.01875 24.2793651,59.5135417 24.4825397,59.109375 L25.1936508,57.6947917 C25.3968254,57.290625 25.9047619,57.0885417 26.3111111,57.290625 L36.5714286,62.0395833 Z M29.2571429,56.8864583 L29.968254,55.471875 L35.8603175,58.2 L35.047619,59.6145833 L29.2571429,56.8864583 Z M52.6222222,3.13229167 C52.215873,2.93020833 52.0126984,2.425 52.215873,2.02083333 C52.4190476,1.61666667 52.9269841,1.41458333 53.3333333,1.61666667 C53.7396825,1.81875 53.9428571,2.32395833 53.7396825,2.728125 C53.5365079,3.13229167 53.0285714,3.334375 52.6222222,3.13229167 Z M42.768254,20.5114583 C42.768254,20.309375 42.9714286,19.703125 44.5968254,18.1875 L55.4666667,6.46666667 C57.4984127,4.14270833 58.9206349,4.34479167 59.9365079,4.74895833 C60.647619,5.05208333 61.1555556,5.65833333 61.4603175,6.46666667 C61.7650794,7.275 61.7650794,8.28541667 61.4603175,8.99270833 C60.952381,10.003125 60.1396825,10.4072917 58.615873,10.4072917 C58.2095238,10.4072917 57.8031746,10.7104167 57.8031746,11.1145833 L56.8888889,18.6927083 C56.8888889,18.9958333 56.7873016,19.2989583 56.7873016,19.6020833 C56.584127,21.1177083 56.4825397,22.43125 55.0603175,23.1385417 C54.7555556,23.2395833 54.552381,23.340625 54.3492063,23.4416667 C53.3333333,23.8458333 52.3174603,24.25 51.2,25.4625 L44.5968254,22.43125 C44.2920635,22.128125 43.8857143,21.825 43.5809524,21.521875 C43.1746032,21.1177083 42.768254,20.8145833 42.768254,20.5114583 Z M14.3238095,55.8760417 C17.2698413,54.865625 20.215873,52.440625 19.8095238,48.3989583 C19.3015873,44.559375 19.9111111,39.40625 25.0920635,36.8802083 C25.1936508,36.8802083 30.1714286,34.6572917 36.6730159,37.284375 L27.8349206,56.1791667 L27.1238095,55.8760417 C25.9047619,55.2697917 24.4825397,55.8760417 23.8730159,57.0885417 L23.1619048,58.503125 C22.552381,59.715625 23.1619048,61.1302083 24.3809524,61.7364583 L34.5396825,66.384375 C35.7587302,66.990625 37.1809524,66.384375 37.7904762,65.171875 L38.5015873,63.7572917 C39.1111111,62.5447917 38.5015873,61.1302083 37.2825397,60.5239583 L36.5714286,60.2208333 L42.0571429,48.5 C43.6825397,49.409375 45.4095238,50.015625 47.3396825,50.015625 C49.2698413,50.015625 50.7936508,50.8239583 51.6063492,52.0364583 C52.3174603,53.1479167 52.4190476,54.4614583 51.8095238,55.9770833 C51.8095238,55.9770833 50.9968254,58.0989583 48.2539683,60.01875 C42.768254,63.8583333 43.9873016,66.7885417 45.3079365,70.2239583 L45.6126984,70.93125 L45.6126984,71.0322917 C47.4412698,75.78125 47.4412698,80.63125 45.4095238,84.875 C40.9396825,94.4739583 27.7333333,97.909375 16.0507937,92.453125 C4.46984127,86.996875 -1.42222222,74.7708333 3.14920635,65.0708333 C5.18095238,60.7260417 9.14285714,57.4927083 14.3238095,55.8760417 Z" id="Shape"></path>
                    <path d="M12.6984127,84.571875 L24.3809524,90.028125 C25.6,90.634375 27.0222222,90.028125 27.631746,88.815625 L28.952381,85.8854167 C29.5619048,84.6729167 28.952381,83.2583333 27.7333333,82.6520833 L16.0507937,77.1958333 C14.831746,76.5895833 13.4095238,77.1958333 12.8,78.4083333 L11.4793651,81.3385417 C10.9714286,82.5510417 11.4793651,84.0666667 12.6984127,84.571875 Z M14.3238095,79.115625 C14.5269841,78.7114583 15.0349206,78.509375 15.4412698,78.7114583 L27.1238095,84.1677083 C27.5301587,84.3697917 27.7333333,84.875 27.5301587,85.2791667 L26.2095238,88.209375 C26.0063492,88.6135417 25.4984127,88.815625 25.0920635,88.6135417 L13.4095238,83.1572917 C13.0031746,82.9552083 12.8,82.45 13.0031746,82.0458333 L14.3238095,79.115625 Z" id="Shape"></path>
                    <path d="M20.9269841,68.9104167 L31.1873016,73.659375 C32.4063492,74.265625 33.8285714,73.659375 34.4380952,72.446875 L35.1492063,71.0322917 C35.7587302,69.8197917 35.1492063,68.4052083 33.9301587,67.7989583 L23.6698413,63.05 C22.4507937,62.44375 21.0285714,63.05 20.4190476,64.2625 L19.7079365,65.6770833 C19.2,66.8895833 19.7079365,68.4052083 20.9269841,68.9104167 Z M21.8412698,64.9697917 C22.0444444,64.565625 22.552381,64.3635417 22.9587302,64.565625 L33.2190476,69.3145833 C33.6253968,69.5166667 33.8285714,70.021875 33.6253968,70.4260417 L32.9142857,71.840625 C32.7111111,72.2447917 32.2031746,72.446875 31.7968254,72.2447917 L21.5365079,67.4958333 C21.1301587,67.29375 20.9269841,66.7885417 21.1301587,66.384375 L21.8412698,64.9697917 Z" id="Shape"></path>
                    <path d="M38.0952381,75.9833333 C39.3142857,76.5895833 40.7365079,75.9833333 41.3460317,74.7708333 C41.9555556,73.5583333 41.3460317,72.14375 40.1269841,71.5375 C38.9079365,70.93125 37.4857143,71.5375 36.8761905,72.75 C36.368254,73.9625 36.8761905,75.478125 38.0952381,75.9833333 Z M39.415873,73.053125 C39.8222222,73.2552083 40.0253968,73.7604167 39.8222222,74.1645833 C39.6190476,74.56875 39.1111111,74.7708333 38.7047619,74.56875 C38.2984127,74.3666667 38.0952381,73.8614583 38.2984127,73.4572917 C38.5015873,73.053125 39.0095238,72.9520833 39.415873,73.053125 Z" id="Shape"></path>
                    <path d="M34.6412698,83.2583333 C35.8603175,83.8645833 37.2825397,83.2583333 37.8920635,82.0458333 C38.5015873,80.8333333 37.8920635,79.41875 36.6730159,78.8125 C35.4539683,78.20625 34.031746,78.8125 33.4222222,80.025 C32.9142857,81.2375 33.4222222,82.753125 34.6412698,83.2583333 Z M36.0634921,80.328125 C36.4698413,80.5302083 36.6730159,81.0354167 36.4698413,81.4395833 C36.2666667,81.84375 35.7587302,82.0458333 35.352381,81.84375 C34.9460317,81.6416667 34.7428571,81.1364583 34.9460317,80.7322917 C35.1492063,80.328125 35.6571429,80.1260417 36.0634921,80.328125 Z" id="Shape"></path>
                    <path d="M41.447619,82.0458333 C42.6666667,82.6520833 44.0888889,82.0458333 44.6984127,80.8333333 C45.3079365,79.6208333 44.6984127,78.20625 43.4793651,77.6 C42.2603175,76.99375 40.8380952,77.6 40.2285714,78.8125 C39.7206349,80.025 40.2285714,81.4395833 41.447619,82.0458333 Z M42.8698413,79.115625 C43.2761905,79.3177083 43.4793651,79.8229167 43.2761905,80.2270833 C43.0730159,80.63125 42.5650794,80.8333333 42.1587302,80.63125 C41.752381,80.4291667 41.5492063,79.9239583 41.752381,79.5197917 C41.9555556,79.115625 42.4634921,78.9135417 42.8698413,79.115625 Z" id="Shape"></path>
                    <path d="M38.0952381,89.3208333 C39.3142857,89.9270833 40.7365079,89.3208333 41.3460317,88.1083333 C41.9555556,86.8958333 41.3460317,85.48125 40.1269841,84.875 C38.9079365,84.26875 37.4857143,84.875 36.8761905,86.0875 C36.368254,87.3 36.8761905,88.7145833 38.0952381,89.3208333 Z M39.415873,86.390625 C39.8222222,86.5927083 40.0253968,87.0979167 39.8222222,87.5020833 C39.6190476,87.90625 39.1111111,88.1083333 38.7047619,87.90625 C38.2984127,87.7041667 38.0952381,87.1989583 38.2984127,86.7947917 C38.5015873,86.390625 39.0095238,86.1885417 39.415873,86.390625 Z" id="Shape"></path>
                    <ellipse id="Oval" cx="15.847619" cy="81.6416667" rx="1" ry="1"></ellipse>
                    <ellipse id="Oval" cx="18.7936508" cy="82.9552083" rx="1" ry="1"></ellipse>
                    <ellipse id="Oval" cx="21.7396825" cy="84.3697917" rx="1" ry="1"></ellipse>
                    <ellipse id="Oval" cx="24.584127" cy="85.6833333" rx="1" ry="1"></ellipse>
                    <path d="M52.6222222,16.36875 C53.8412698,16.975 55.2634921,16.36875 55.8730159,15.15625 C56.4825397,13.94375 55.8730159,12.5291667 54.6539683,11.9229167 C53.4349206,11.3166667 52.0126984,11.9229167 51.4031746,13.1354167 C50.7936508,14.3479167 51.4031746,15.8635417 52.6222222,16.36875 Z M54.0444444,13.5395833 C54.4507937,13.7416667 54.6539683,14.246875 54.4507937,14.6510417 C54.247619,15.0552083 53.7396825,15.2572917 53.3333333,15.0552083 C52.9269841,14.853125 52.7238095,14.3479167 52.9269841,13.94375 C53.1301587,13.5395833 53.6380952,13.3375 54.0444444,13.5395833 Z" id="Shape"></path>
                    <path d="M48.152381,22.2291667 C49.3714286,22.8354167 50.7936508,22.2291667 51.4031746,21.0166667 C52.0126984,19.8041667 51.4031746,18.3895833 50.184127,17.7833333 C48.9650794,17.1770833 47.5428571,17.7833333 46.9333333,18.9958333 C46.4253968,20.309375 46.9333333,21.7239583 48.152381,22.2291667 Z M49.4730159,19.4 C49.8793651,19.6020833 50.0825397,20.1072917 49.8793651,20.5114583 C49.6761905,20.915625 49.168254,21.1177083 48.7619048,20.915625 C48.3555556,20.7135417 48.152381,20.2083333 48.3555556,19.8041667 C48.5587302,19.4 49.0666667,19.1979167 49.4730159,19.4 Z" id="Shape"></path>
                </g>
            </g>
        </g>
    </g>
</svg>