<?xml version="1.0" encoding="UTF-8"?>
<svg width="24px" height="24px" viewBox="0 0 24 24" version="1.1" xmlns="http://www.w3.org/2000/svg" xmlns:xlink="http://www.w3.org/1999/xlink">
    <title>Search</title>
    <g id="Design" stroke="none" stroke-width="1" fill="none" fill-rule="evenodd">
        <g id="Desktop_Song-List" transform="translate(-350.000000, -991.000000)" fill="#364C58" fill-rule="nonzero">
            <g id="Search" transform="translate(334.000000, 931.000000)">
                <g id="search-bar" transform="translate(0.000000, 44.000000)">
                    <path d="M33.1526587,31.0943396 L32.0686106,31.0943396 L31.6843911,30.7238422 C33.0291595,29.1595197 33.838765,27.1286449 33.838765,24.9193825 C33.838765,19.9931389 29.8456261,16 24.9193825,16 C19.9931389,16 16,19.9931389 16,24.9193825 C16,29.8456261 19.9931389,33.838765 24.9193825,33.838765 C27.1286449,33.838765 29.1595197,33.0291595 30.7238422,31.6843911 L31.0943396,32.0686106 L31.0943396,33.1526587 L37.9554031,40 L40,37.9554031 L33.1526587,31.0943396 Z M24.9193825,31.0943396 C21.5025729,31.0943396 18.7444254,28.3361921 18.7444254,24.9193825 C18.7444254,21.5025729 21.5025729,18.7444254 24.9193825,18.7444254 C28.3361921,18.7444254 31.0943396,21.5025729 31.0943396,24.9193825 C31.0943396,28.3361921 28.3361921,31.0943396 24.9193825,31.0943396 Z" id="Shape"></path>
                </g>
            </g>
        </g>
    </g>
</svg>