<?xml version="1.0" encoding="UTF-8"?>
<svg width="34px" height="26px" viewBox="0 0 34 26" version="1.1" xmlns="http://www.w3.org/2000/svg" xmlns:xlink="http://www.w3.org/1999/xlink">
    <title>social-twitter</title>
    <g id="Design" stroke="none" stroke-width="1" fill="none" fill-rule="evenodd">
        <g id="Desktop_Home" transform="translate(-695.000000, -4082.000000)" fill="#FFFFFF" fill-rule="nonzero">
            <g id="Social-section" transform="translate(0.000000, 3917.000000)">
                <g id="social-twitter" transform="translate(675.000000, 142.000000)">
                    <g id="social-twitter" transform="translate(21.000000, 23.000000)">
                        <path d="M32.32,3.25 C31.2,3.7375 29.92,4.0625 28.48,4.225 C29.76,3.4125 30.88,2.1125 31.36,0.65 C30.08,1.4625 28.64,1.95 27.2,2.275 C26.08,0.975 24.32,0.1625 22.4,0.1625 C18.72,0.1625 15.84,3.0875 15.84,6.6625 C15.84,7.15 15.84,7.6375 16,8.125 C10.56,7.8 5.76,5.2 2.4,1.3 C1.76,2.275 1.44,3.4125 1.44,4.55 C1.44,6.825 2.56,8.775 4.32,10.075 C3.2,10.075 2.24,9.75 1.28,9.2625 L1.28,9.2625 C1.28,12.5125 3.52,15.1125 6.56,15.7625 C6.08,15.925 5.44,15.925 4.8,15.925 C4.32,15.925 4,15.925 3.52,15.7625 C4.32,18.3625 6.72,20.3125 9.6,20.3125 C7.36,22.1 4.48,23.075 1.44,23.075 C0.96,23.075 0.32,23.075 -0.16,22.9125 C2.72,24.7 6.24,25.8375 9.92,25.8375 C22.4,26.1625 29.12,16.0875 29.12,7.475 C29.12,7.15 29.12,6.9875 29.12,6.6625 C30.4,5.6875 31.52,4.55 32.32,3.25" id="Path"></path>
                    </g>
                </g>
            </g>
        </g>
    </g>
</svg>