<?xml version="1.0" encoding="UTF-8"?>
<svg width="33px" height="33px" viewBox="0 0 33 33" version="1.1" xmlns="http://www.w3.org/2000/svg" xmlns:xlink="http://www.w3.org/1999/xlink">
    <title>social-instagram</title>
    <g id="Design" stroke="none" stroke-width="1" fill="none" fill-rule="evenodd">
        <g id="Desktop_Home" transform="translate(-583.000000, -4079.000000)" fill="#4850E8" fill-rule="nonzero">
            <g id="Social-section" transform="translate(0.000000, 3917.000000)">
                <g id="social-instagram" transform="translate(563.000000, 142.000000)">
                    <g id="social-instagram" transform="translate(20.000000, 20.000000)">
                        <path d="M16,0 C11.68,0 11.2,0 9.44,0.16 C7.68,0.16 6.56,0.48 5.6,0.96 C4.48,1.28 3.68,1.76 2.72,2.72 C1.76,3.52 1.28,4.48 0.8,5.44 C0.48,6.4 0.16,7.68 0,9.28 C0,11.04 0,11.68 0,16 C0,20.32 0,20.8 0.16,22.56 C0.16,24.32 0.48,25.44 0.96,26.4 C1.44,27.52 1.92,28.32 2.88,29.28 C3.84,30.24 4.64,30.72 5.76,31.2 C6.72,31.52 8,31.84 9.6,32 C11.36,32 11.84,32.16 16.16,32.16 C20.48,32.16 20.96,32.16 22.72,32 C24.48,32 25.6,31.68 26.56,31.2 C27.68,30.72 28.48,30.24 29.44,29.28 C30.4,28.32 30.88,27.52 31.36,26.4 C31.68,25.44 32,24.16 32.16,22.56 C32,20.8 32,20.32 32,16 C32,11.68 32,11.2 31.84,9.44 C31.84,7.68 31.52,6.56 31.04,5.6 C30.56,4.48 30.08,3.68 29.12,2.72 C28.16,1.76 27.36,1.28 26.24,0.8 C25.28,0.48 24,0.16 22.4,0 C20.8,0 20.32,0 16,0 M16,2.88 C20.32,2.88 20.8,2.88 22.4,3.04 C24,3.04 24.8,3.36 25.44,3.52 C26.24,3.84 26.72,4.16 27.2,4.64 C27.68,5.12 28.16,5.76 28.32,6.4 C28.48,7.04 28.8,7.84 28.8,9.44 C28.8,11.2 28.96,11.68 28.96,15.84 C28.96,20.16 28.96,20.64 28.8,22.24 C28.8,23.84 28.48,24.64 28.32,25.28 C28,26.08 27.68,26.56 27.2,27.04 C26.72,27.52 26.08,28 25.44,28.16 C24.8,28.64 24,28.8 22.4,28.96 C20.64,28.96 20.16,29.12 16,29.12 C11.84,29.12 11.2,29.12 9.6,28.96 C8,28.96 7.2,28.64 6.56,28.48 C5.92,28.16 5.28,27.68 4.8,27.2 C4.32,26.72 3.84,26.08 3.68,25.44 C3.36,24.8 3.04,24 3.04,22.4 C3.04,20.64 2.88,20.16 2.88,16 C2.88,11.68 2.88,11.2 3.04,9.6 C3.04,8 3.36,7.2 3.52,6.56 C3.84,5.76 4.16,5.28 4.8,4.64 C5.28,4.16 5.92,3.68 6.56,3.52 C7.2,3.36 8,3.04 9.6,2.88 C11.2,2.88 11.68,2.88 16,2.88" id="Shape"></path>
                        <path d="M16,21.28 C13.12,21.28 10.72,18.88 10.72,16 C10.72,13.12 13.12,10.72 16,10.72 C18.88,10.72 21.28,13.12 21.28,16 C21.28,18.88 18.88,21.28 16,21.28 M16,7.84 C11.52,7.84 7.84,11.52 7.84,16 C7.84,20.48 11.52,24.16 16,24.16 C20.48,24.16 24.16,20.48 24.16,16 C24.16,11.52 20.48,7.84 16,7.84" id="Shape"></path>
                        <path d="M26.4,7.52 C26.4,8.64 25.6,9.44 24.48,9.44 C23.36,9.44 22.56,8.64 22.56,7.52 C22.56,6.4 23.36,5.6 24.48,5.6 C25.6,5.6 26.4,6.4 26.4,7.52" id="Path"></path>
                    </g>
                </g>
            </g>
        </g>
    </g>
</svg>
