<?xml version="1.0" encoding="UTF-8"?>
<svg width="20px" height="6px" viewBox="0 0 20 6" version="1.1" xmlns="http://www.w3.org/2000/svg" xmlns:xlink="http://www.w3.org/1999/xlink">
    <title>38DECDF6-B066-4FD8-B000-45B9F941F346</title>
    <g id="Design" stroke="none" stroke-width="1" fill="none" fill-rule="evenodd">
        <g id="Desktop_FAQ" transform="translate(-266.000000, -908.000000)" fill="#FFFFFF" fill-rule="nonzero">
            <g id="FAQ-section" transform="translate(242.000000, 863.000000)">
                <g id="Q1" transform="translate(24.122500, 33.000000)">
                    <path d="M18.63,17.25 C18.85,17.25 19.03,17.175 19.17,17.025 C19.31,16.875 19.38,16.7 19.38,16.5 L19.38,16.5 L19.38,13.5 C19.38,13.28 19.31,13.1 19.17,12.96 C19.03,12.82 18.85,12.75 18.63,12.75 L18.63,12.75 L0.78,12.75 C0.56,12.75 0.375,12.82 0.225,12.96 C0.075,13.1 -1.30739863e-12,13.28 -1.30739863e-12,13.5 L-1.30739863e-12,13.5 L-1.30739863e-12,16.5 C-1.30739863e-12,16.72 0.075,16.9 0.225,17.04 C0.375,17.18 0.56,17.25 0.78,17.25 L0.78,17.25 L18.63,17.25 Z" id="—"></path>
                </g>
            </g>
        </g>
    </g>
</svg>